<?xml version="1.0" standalone="no"?><!DOCTYPE svg PUBLIC "-//W3C//DTD SVG 1.1//EN" "http://www.w3.org/Graphics/SVG/1.1/DTD/svg11.dtd">
<svg t="1651187870841" class="icon" viewBox="0 0 1024 1024" version="1.1" xmlns="http://www.w3.org/2000/svg" p-id="3446" xmlns:xlink="http://www.w3.org/1999/xlink" width="200" height="200">
<path d="M953.3 632c-3-19.9-8.5-39.4-16.2-58.1-18-51.1-44.9-98.1-79.9-139.8 0.1-3.9 0.2-7.7 0.2-11.4 0-29.3-3.7-58.2-10.9-86.3 21.7-10.2 41-25.6 55.5-44.8 19.4-25.7 29.7-56.3 29.7-88.6 0-49.1-24.3-94.8-65.1-122.2l-25.7-17.3-5.2 30.5c-7.2 41.9-38.1 75-78.5 85.5-16-16.1-33.5-30.6-52.3-43.3l0.5-0.6-20.4-11.8-14.7-8.5-0.3 0.3c-48.7-25-102.9-38.2-157.8-38.2S403 90.6 354.4 115.6l-0.3-0.3-14.7 8.5-20.4 11.8 0.5 0.6c-18.9 12.7-36.5 27.3-52.6 43.5-40.9-10.2-72.4-43.5-79.6-85.7l-5.2-30.5-25.7 17.3C115.6 108.3 91.3 154 91.3 203c0 32.3 10.3 62.9 29.6 88.6 14.8 19.5 34.4 35.2 56.6 45.4-7.1 27.9-10.8 56.7-10.8 85.8 0 3.7 0.1 7.5 0.2 11.4-35 41.7-61.9 88.7-80 139.8-7.7 18.7-13.2 38.2-16.2 58.1-1.9 12.7-2.9 25.7-2.9 38.7 0 67.8 26.4 131.6 74.4 179.5 47.9 47.9 111.7 74.4 179.5 74.4 22.2 0 44.4-3 65.8-8.7 35 28.9 78.9 44.7 124.6 44.7s89.5-15.8 124.6-44.7c21.4 5.7 43.6 8.7 65.8 8.7 67.8 0 131.6-26.4 179.5-74.4 47.9-47.9 74.4-111.7 74.4-179.5-0.1-13.1-1.1-26.1-3.1-38.8zM701.9 314.9c-16.8-7.8-33.9-14.5-51.3-20.2-0.1-0.5-0.2-1.1-0.2-1.6 0-0.3-0.1-0.7-0.1-1-0.2-1.4-0.3-2.7-0.5-4.1 0-0.3-0.1-0.6-0.1-0.9-0.1-1.1-0.2-2.3-0.3-3.4 0-0.4-0.1-0.7-0.1-1.1-0.1-1.4-0.2-2.7-0.3-4.1v-0.6c-0.1-1.2-0.1-2.4-0.1-3.6v-1.1c0-1.4-0.1-2.8-0.1-4.2v-3.7-1.2c0-0.8 0-1.7 0.1-2.5 0-0.5 0-0.9 0.1-1.4 0-0.8 0.1-1.5 0.1-2.3 0-0.5 0.1-1 0.1-1.5 0.1-0.8 0.1-1.5 0.2-2.3 0-0.5 0.1-0.9 0.1-1.4 0.1-0.8 0.2-1.6 0.2-2.4 0-0.4 0.1-0.9 0.1-1.3 0.1-1 0.2-2 0.4-3 0-0.2 0-0.4 0.1-0.6 0.2-1.2 0.3-2.4 0.5-3.6 0.1-0.4 0.1-0.8 0.2-1.1 0.1-0.8 0.3-1.7 0.4-2.5 0.1-0.5 0.2-0.9 0.2-1.4 0.1-0.7 0.3-1.5 0.4-2.2l0.3-1.5c0.1-0.7 0.3-1.4 0.5-2.2l0.3-1.5c0.2-0.7 0.3-1.5 0.5-2.2 0.1-0.4 0.2-0.9 0.3-1.3 0.2-0.9 0.4-1.7 0.7-2.6 0.1-0.3 0.2-0.6 0.2-0.9 0.3-1.2 0.6-2.3 1-3.5 0.1-0.3 0.2-0.7 0.3-1 0.2-0.8 0.5-1.7 0.7-2.5 0.1-0.4 0.3-0.9 0.4-1.3 0.2-0.7 0.5-1.4 0.7-2.2 0.2-0.5 0.3-0.9 0.5-1.4 0.2-0.7 0.5-1.4 0.7-2.1 0.2-0.5 0.3-0.9 0.5-1.4 0.3-0.7 0.5-1.4 0.8-2.1 0.2-0.4 0.3-0.9 0.5-1.3 0.3-0.8 0.6-1.6 0.9-2.3 0.1-0.4 0.3-0.7 0.4-1.1 0.5-1.1 0.9-2.2 1.4-3.3 0.1-0.2 0.2-0.5 0.3-0.7 0.4-0.9 0.8-1.7 1.2-2.6l0.6-1.2c0.3-0.7 0.7-1.4 1-2.1 0.2-0.4 0.4-0.9 0.6-1.3 0.3-0.7 0.7-1.3 1-2 0.2-0.4 0.4-0.9 0.7-1.3 0.3-0.7 0.7-1.3 1.1-2 0.2-0.4 0.4-0.8 0.7-1.2 0.4-0.7 0.8-1.4 1.2-2.2 0.2-0.3 0.4-0.7 0.6-1 0.6-1.1 1.2-2.1 1.8-3.2 0-0.1 0.1-0.1 0.1-0.2 0.6-1 1.2-1.9 1.8-2.9 0.2-0.3 0.4-0.7 0.6-1 0.4-0.7 0.9-1.4 1.3-2.1 0.3-0.4 0.5-0.8 0.8-1.2 0.2-0.4 0.5-0.8 0.8-1.1 13.8 9.1 26.7 19.2 38.8 30.4l15.8 17c30.7 33 54.1 73.1 67.5 115.8l5.9 18.8 0.5-0.2c3.3 13.6 5.8 27.4 7.2 41.4-33.6-30.9-71.7-56.4-113.6-75.9zM833 180.7c14.1-13.8 25.1-30 32.5-47.8 16.6 19.2 26 44 26 70 0 23.5-7.5 45.8-21.6 64.5-9.6 12.7-21.9 23.1-35.9 30.4-6.7-17.3-14.8-34.2-24.3-50.3-7.3-12.4-15.4-24.3-24.2-35.7 17.6-7 33.7-17.5 47.5-31.1z m-321-63.4c46.1 0 91.7 10.5 133 30.5-0.8 1.2-1.5 2.4-2.3 3.6-0.2 0.3-0.4 0.7-0.6 1-0.6 0.9-1.1 1.9-1.7 2.8-0.3 0.5-0.5 0.9-0.8 1.4-0.5 0.8-1 1.7-1.4 2.5-0.3 0.5-0.6 1-0.8 1.5-0.5 0.8-0.9 1.7-1.4 2.5-0.3 0.5-0.5 0.9-0.8 1.4-0.5 0.9-1 1.9-1.5 2.8-0.2 0.4-0.4 0.7-0.6 1.1-0.7 1.3-1.3 2.6-2 4-0.1 0.2-0.2 0.4-0.3 0.7-0.5 1.1-1.1 2.2-1.6 3.3-0.2 0.5-0.4 0.9-0.6 1.4l-1.2 2.7c-0.2 0.5-0.4 1-0.7 1.5-0.4 0.9-0.7 1.7-1.1 2.6l-0.6 1.5c-0.4 0.9-0.7 1.9-1.1 2.8-0.2 0.4-0.3 0.9-0.5 1.3-0.5 1.3-1 2.7-1.5 4v0.1c-0.5 1.4-1 2.8-1.4 4.2-0.1 0.4-0.3 0.9-0.4 1.3-0.3 1-0.6 1.9-0.9 2.9-0.2 0.5-0.3 1-0.5 1.6-0.3 0.9-0.5 1.8-0.8 2.7-0.2 0.5-0.3 1.1-0.5 1.6-0.3 0.9-0.5 1.9-0.8 2.8-0.1 0.5-0.3 1-0.4 1.5-0.3 1.1-0.6 2.3-0.9 3.4-0.1 0.3-0.1 0.6-0.2 0.9-0.3 1.4-0.7 2.9-1 4.3-0.1 0.4-0.2 0.8-0.2 1.2-0.2 1.1-0.5 2.1-0.7 3.2-0.1 0.5-0.2 1-0.3 1.6-0.2 0.9-0.4 1.9-0.5 2.8-0.1 0.6-0.2 1.1-0.3 1.7-0.2 0.9-0.3 1.9-0.5 2.8-0.1 0.5-0.2 1.1-0.2 1.6-0.2 1.1-0.3 2.1-0.5 3.2-0.1 0.4-0.1 0.8-0.2 1.2-0.2 1.5-0.4 2.9-0.5 4.4 0 0.3-0.1 0.6-0.1 0.8-0.1 1.2-0.2 2.4-0.4 3.6 0 0.5-0.1 1-0.1 1.5-0.1 1-0.2 2-0.2 2.9 0 0.6-0.1 1.1-0.1 1.7-0.1 1-0.1 1.9-0.2 2.9 0 0.6-0.1 1.1-0.1 1.7 0 1-0.1 2-0.1 3.1v5.9c0 1.7 0 3.4 0.1 5.1v1.1c0 1.7 0.1 3.3 0.2 5v0.7c0 0.8 0.1 1.7 0.1 2.5-31.7-7-64.2-10.5-97.3-10.5s-65.6 3.5-97.3 10.5c0.1-0.8 0.1-1.6 0.1-2.5v-0.7c0.1-1.7 0.1-3.3 0.2-5v-1.1c0-1.7 0.1-3.4 0.1-5.1v-4.5-1.4c0-1-0.1-2-0.1-3.1 0-0.6 0-1.1-0.1-1.7 0-0.9-0.1-1.9-0.2-2.8 0-0.6-0.1-1.1-0.1-1.7-0.1-1-0.1-2-0.2-2.9 0-0.5-0.1-1-0.1-1.5-0.1-1.2-0.2-2.4-0.4-3.6 0-0.3-0.1-0.6-0.1-0.9-0.2-1.5-0.3-2.9-0.5-4.4-0.1-0.4-0.1-0.8-0.2-1.2-0.1-1.1-0.3-2.1-0.4-3.2-0.1-0.5-0.2-1.1-0.2-1.6-0.1-0.9-0.3-1.9-0.5-2.8-0.1-0.6-0.2-1.1-0.3-1.7-0.2-0.9-0.3-1.9-0.5-2.8-0.1-0.5-0.2-1-0.3-1.6-0.2-1.1-0.4-2.1-0.7-3.2l-0.3-1.2c-0.3-1.4-0.6-2.9-1-4.3-0.1-0.3-0.1-0.6-0.2-0.9-0.3-1.1-0.6-2.3-0.9-3.4-0.1-0.5-0.3-1-0.4-1.5-0.3-0.9-0.5-1.9-0.8-2.8-0.2-0.5-0.3-1.1-0.5-1.6-0.3-0.9-0.5-1.8-0.8-2.7-0.2-0.5-0.3-1-0.5-1.6-0.3-1-0.6-1.9-0.9-2.9-0.1-0.4-0.3-0.9-0.4-1.3-0.5-1.4-1-2.8-1.4-4.2v-0.1c-0.5-1.4-1-2.7-1.5-4-0.2-0.4-0.3-0.9-0.5-1.3-0.4-0.9-0.7-1.9-1.1-2.8l-0.6-1.5c-0.4-0.9-0.7-1.8-1.1-2.6l-0.6-1.5-1.2-2.7c-0.2-0.4-0.4-0.9-0.6-1.3-0.5-1.1-1.1-2.3-1.6-3.4l-0.3-0.6c-0.6-1.3-1.3-2.7-2-4-0.2-0.3-0.4-0.7-0.5-1-0.5-1-1-1.9-1.5-2.9-0.2-0.5-0.5-0.9-0.7-1.4-0.5-0.9-0.9-1.7-1.4-2.6-0.3-0.5-0.5-0.9-0.8-1.4-0.5-0.9-1-1.7-1.5-2.6-0.3-0.4-0.5-0.9-0.8-1.3-0.6-1-1.2-1.9-1.8-2.9-0.2-0.3-0.4-0.6-0.5-0.9-0.8-1.2-1.5-2.4-2.3-3.6 41.1-20.1 86.7-30.6 132.8-30.6zM220.7 330.8c0.8-2.7 1.7-5.3 2.6-8 9.6-27.8 23.5-54.3 40.8-78.4 0.8-1.1 1.7-2.3 2.5-3.4 6.7-9.1 13.9-17.8 21.6-26 16.8-18.1 35.5-33.9 55.9-47.4 0.3 0.4 0.5 0.7 0.8 1.1 0.3 0.4 0.5 0.8 0.8 1.2 0.4 0.7 0.9 1.4 1.3 2.1 0.2 0.3 0.4 0.7 0.7 1 0.6 1 1.2 1.9 1.8 2.9 0 0.1 0.1 0.2 0.1 0.2 0.6 1 1.2 2.1 1.8 3.2 0.2 0.3 0.4 0.7 0.6 1 0.4 0.7 0.8 1.4 1.2 2.2 0.2 0.4 0.4 0.8 0.7 1.2 0.4 0.7 0.7 1.3 1.1 2 0.2 0.4 0.5 0.9 0.7 1.3 0.3 0.7 0.7 1.3 1 2 0.2 0.4 0.4 0.9 0.6 1.3 0.3 0.7 0.7 1.4 1 2.1l0.6 1.2c0.4 0.9 0.8 1.7 1.2 2.6 0.1 0.2 0.2 0.5 0.3 0.7 0.5 1.1 0.9 2.2 1.4 3.3 0.1 0.4 0.3 0.7 0.4 1.1 0.3 0.8 0.6 1.6 0.9 2.3 0.2 0.4 0.3 0.9 0.5 1.3 0.3 0.7 0.5 1.4 0.8 2.1 0.2 0.5 0.3 0.9 0.5 1.4 0.2 0.7 0.5 1.4 0.7 2.1 0.2 0.5 0.3 0.9 0.5 1.4 0.2 0.7 0.5 1.4 0.7 2.2 0.1 0.4 0.3 0.9 0.4 1.3 0.3 0.8 0.5 1.7 0.7 2.5 0.1 0.3 0.2 0.7 0.3 1 0.3 1.2 0.7 2.3 1 3.5 0.1 0.3 0.2 0.6 0.2 0.9 0.2 0.9 0.4 1.7 0.7 2.6 0.1 0.4 0.2 0.9 0.3 1.3 0.2 0.7 0.3 1.5 0.5 2.2l0.3 1.5c0.2 0.7 0.3 1.4 0.5 2.2l0.3 1.5c0.1 0.7 0.3 1.5 0.4 2.2 0.1 0.5 0.2 0.9 0.2 1.4 0.1 0.8 0.3 1.7 0.4 2.5 0.1 0.4 0.1 0.8 0.2 1.1 0.2 1.2 0.4 2.4 0.5 3.6 0 0.2 0 0.4 0.1 0.6 0.1 1 0.3 2 0.4 3 0 0.4 0.1 0.9 0.1 1.3 0.1 0.8 0.2 1.6 0.2 2.4 0 0.5 0.1 0.9 0.1 1.4 0.1 0.8 0.1 1.5 0.2 2.3 0 0.5 0.1 1 0.1 1.5 0 0.8 0.1 1.5 0.1 2.3 0 0.5 0 0.9 0.1 1.4 0 0.8 0.1 1.7 0.1 2.5v4.9c0 1.4 0 2.8-0.1 4.2v1.1c0 1.2-0.1 2.4-0.1 3.6v0.6c-0.1 1.4-0.2 2.7-0.3 4.1 0 0.4-0.1 0.7-0.1 1.1-0.1 1.1-0.2 2.3-0.3 3.4 0 0.3-0.1 0.6-0.1 0.9-0.1 1.4-0.3 2.7-0.5 4.1 0 0.3-0.1 0.6-0.1 1-0.1 0.5-0.2 1.1-0.2 1.6-17.4 5.6-34.5 12.4-51.3 20.2-41.9 19.5-80 44.9-113.9 75.9 2.2-20.4 6.3-40.5 12.5-60z m-68-63.4c-14.1-18.7-21.6-41-21.6-64.5 0-26 9.4-50.8 26-70 7.5 17.8 18.5 33.9 32.5 47.8 14.1 13.8 30.5 24.5 48.5 31.7-0.1 0.1-0.2 0.3-0.3 0.4-1.1 1.5-2.3 3-3.4 4.5-0.1 0.1-0.2 0.2-0.3 0.4l-3 4.2c-0.3 0.5-0.7 0.9-1 1.4-0.8 1.1-1.6 2.2-2.3 3.3-0.3 0.5-0.7 1-1 1.4-0.9 1.3-1.8 2.6-2.7 4-0.2 0.2-0.3 0.5-0.5 0.7-1 1.6-2.1 3.1-3.1 4.7-0.3 0.4-0.5 0.8-0.8 1.3-0.8 1.2-1.5 2.4-2.2 3.6l-0.9 1.5c-0.7 1.2-1.5 2.5-2.2 3.7-0.2 0.4-0.5 0.8-0.7 1.2-0.9 1.6-1.9 3.2-2.8 4.9-0.2 0.3-0.3 0.6-0.5 0.9-0.8 1.3-1.5 2.7-2.2 4-0.3 0.5-0.6 1-0.8 1.5-0.6 1.2-1.3 2.4-1.9 3.6-0.3 0.5-0.5 1-0.8 1.5-1.7 3.3-3.4 6.7-5 10.1-0.2 0.5-0.5 1-0.7 1.5-0.6 1.2-1.1 2.5-1.7 3.7-0.2 0.5-0.5 1.1-0.7 1.6-0.6 1.4-1.2 2.7-1.8 4.1-0.2 0.3-0.3 0.7-0.5 1-0.7 1.7-1.5 3.4-2.2 5.1-0.2 0.4-0.4 0.9-0.5 1.3-0.5 1.3-1 2.6-1.6 3.9-0.1 0.3-0.2 0.5-0.3 0.8-14.4-7.1-27.2-17.8-37-30.8zM512 920.6c-28.2 0-55.5-7.5-79.3-21.6 2.3-1.1 4.7-2.3 7-3.5 27.3-14.4 51.9-33.8 72.3-57 20.4 23.2 45.1 42.6 72.3 57 2.3 1.2 4.6 2.4 7 3.5-23.8 14-51.1 21.6-79.3 21.6z m341.6-98.7c-40.4 40.4-94.1 62.6-151.2 62.6-28 0-55.8-5.5-81.4-16.1-0.6-0.3-1.2-0.5-1.8-0.8-0.9-0.4-1.7-0.7-2.6-1.1-24.3-10.7-46.6-26-65.4-44.8l-1.4-1.4c-0.7-0.7-1.4-1.4-2.1-2.2-1.1-1.1-2.1-2.3-3.2-3.4-0.5-0.5-1-1.1-1.4-1.6l-2.4-2.7c-0.4-0.5-0.8-1-1.3-1.5-1.1-1.3-2.3-2.7-3.4-4.1-0.2-0.3-0.4-0.5-0.6-0.8-1-1.2-1.9-2.4-2.9-3.7l-0.9-1.2-3.3-4.5L512 772l-16.3 22.8-3.3 4.5-0.9 1.2c-0.9 1.2-1.9 2.4-2.8 3.6-0.2 0.3-0.4 0.6-0.7 0.8-1.1 1.4-2.2 2.7-3.4 4.1-0.4 0.5-0.9 1-1.3 1.5-0.8 0.9-1.6 1.8-2.3 2.7-0.5 0.5-1 1.1-1.5 1.6-1 1.1-2.1 2.3-3.2 3.4-0.7 0.7-1.4 1.5-2.1 2.2-0.4 0.5-0.9 0.9-1.4 1.4-18.8 18.8-41.1 34.1-65.4 44.8-0.9 0.4-1.7 0.8-2.6 1.1-0.6 0.3-1.2 0.5-1.8 0.8-25.7 10.6-53.5 16.1-81.4 16.1-57.1 0-110.8-22.2-151.2-62.6-40.4-40.4-62.6-94.1-62.6-151.2 0-10.9 0.8-21.9 2.5-32.6 2.6-16.9 7.2-33.5 13.8-49.3l0.4-1c17.2-49.1 43.4-94 77.8-133.5 1.5-1.7 3-3.4 4.5-5 0.3-0.4 0.7-0.8 1.1-1.2 1.3-1.5 2.7-3 4.1-4.4l0.5-0.5c50.3-53.7 113.7-92.8 184.3-113.5h0.1c32.8-9.6 66.6-15 100.7-16.3h0.1c2.1-0.1 4.3-0.1 6.4-0.2h1.3c2.3 0 4.5-0.1 6.8-0.1s4.5 0 6.8 0.1h1.3c2.1 0 4.3 0.1 6.4 0.2h0.1c34.1 1.2 67.9 6.7 100.7 16.3 70.6 20.6 134 59.7 184.3 113.5 0.1 0.2 0.3 0.3 0.4 0.5 1.4 1.5 2.7 2.9 4.1 4.4 0.3 0.4 0.7 0.8 1 1.2 1.5 1.7 3 3.3 4.5 5 34.4 39.5 60.6 84.4 77.8 133.5l0.4 1c6.6 15.9 11.3 32.5 13.8 49.4 1.6 10.7 2.5 21.7 2.5 32.6 0 56.9-22.3 110.6-62.7 151z" p-id="3447">
</path>
<path d="M308.1 609.6m-67.4 0a67.4 67.4 0 1 0 134.8 0 67.4 67.4 0 1 0-134.8 0Z" p-id="3448">
</path>
<path d="M716.4 609.6m-67.4 0a67.4 67.4 0 1 0 134.8 0 67.4 67.4 0 1 0-134.8 0Z" p-id="3449"></path></svg>