<?xml version="1.0" standalone="no"?><!DOCTYPE svg PUBLIC "-//W3C//DTD SVG 1.1//EN" "http://www.w3.org/Graphics/SVG/1.1/DTD/svg11.dtd"><svg t="1741836699608" class="icon" viewBox="0 0 1024 1024" version="1.1" xmlns="http://www.w3.org/2000/svg" p-id="1371" xmlns:xlink="http://www.w3.org/1999/xlink" width="48" height="48"><path d="M448.698182 482.210909c-96.814545 4.654545-175.010909 56.785455-175.010909 121.949091s78.196364 114.501818 175.010909 109.847273S623.709091 647.912727 623.709091 582.749091c-0.930909-64.232727-79.127273-105.192727-175.010909-100.538182z m65.163636 164.770909c-29.789091 39.098182-88.436364 57.716364-145.221818 26.065455-26.996364-14.894545-26.065455-43.752727-26.065455-43.752728s-11.170909-92.16 85.643637-103.330909c97.745455-12.101818 115.432727 81.92 85.643636 121.018182z" fill="#EA5D5C" p-id="1372"></path><path d="M448.698182 584.610909c-6.516364 4.654545-7.447273 13.032727-3.723637 18.618182 2.792727 5.585455 11.170909 6.516364 16.756364 1.861818 5.585455-4.654545 8.378182-13.032727 4.654546-18.618182-2.792727-5.585455-10.24-6.516364-17.687273-1.861818zM403.083636 597.643636c-18.618182 1.861818-30.72 17.687273-30.72 33.512728 0 14.894545 14.894545 26.065455 32.581819 24.203636 17.687273-1.861818 32.581818-15.825455 32.581818-31.650909s-13.963636-27.927273-34.443637-26.065455z" fill="#EA5D5C" p-id="1373"></path><path d="M512 0C229.003636 0 0 229.003636 0 512s229.003636 512 512 512 512-229.003636 512-512S794.996364 0 512 0z m197.352727 626.501818C669.323636 712.145455 538.065455 754.036364 441.250909 746.589091c-92.16-7.447273-211.316364-38.167273-223.418182-151.738182 0 0-6.516364-51.2 42.821818-117.294545 0 0 70.749091-99.607273 152.669091-128.465455 82.850909-27.927273 92.16 19.549091 92.16 48.407273-4.654545 24.203636-12.101818 38.167273 18.618182 28.858182 0 0 80.989091-38.167273 114.501818-4.654546 26.996364 26.996364 4.654545 65.163636 4.654546 65.163637s-11.170909 12.101818 12.101818 16.756363c21.410909 3.723636 94.021818 37.236364 53.992727 122.88z m-80.058182-236.450909c-8.378182 0-15.825455-7.447273-15.825454-15.825454 0-9.309091 7.447273-15.825455 15.825454-15.825455 0 0 99.607273-18.618182 87.505455 89.367273v1.861818c-0.930909 7.447273-7.447273 13.963636-15.825455 13.963636-9.309091 0-15.825455-7.447273-15.825454-15.825454 0-1.861818 15.825455-73.541818-55.854546-57.716364zM797.789091 493.381818c-2.792727 18.618182-12.101818 11.170909-22.341818 11.170909-13.032727 0-23.272727-16.756364-23.272728-29.789091 0-11.170909 4.654545-22.341818 4.654546-22.341818 0.930909-4.654545 12.101818-34.443636-7.447273-78.196363-35.374545-60.509091-106.123636-60.509091-114.501818-57.716364-8.378182 3.723636-21.410909 5.585455-21.410909 5.585454-13.032727 0-23.272727-10.24-23.272727-23.272727 0-11.170909 7.447273-19.549091 16.756363-22.341818 0 0 0 0.930909 0.930909 0.930909s1.861818 0.930909 1.861819 0.930909c10.24-1.861818 45.614545-4.654545 79.127272 3.723637 62.370909 14.894545 146.152727 83.781818 108.916364 211.316363z" fill="#EA5D5C" p-id="1374"></path></svg>